<svg xmlns="http://www.w3.org/2000/svg" xmlns:xlink="http://www.w3.org/1999/xlink" viewBox="0 0 2090.48 1092.86"><defs><style>.cls-1{fill:url(#linear-gradient);}.cls-2{fill:url(#linear-gradient-2);}.cls-3{fill:url(#linear-gradient-3);}.cls-4{fill:url(#linear-gradient-4);}.cls-5{fill:url(#linear-gradient-5);}.cls-6{fill:url(#linear-gradient-6);}.cls-7{fill:url(#linear-gradient-7);}.cls-8{fill:url(#linear-gradient-8);}.cls-9{fill:url(#linear-gradient-9);}.cls-10{fill:#ff960b;}.cls-11{fill:url(#linear-gradient-10);}.cls-12{fill:#ffaeae;}.cls-13{fill:#8e3817;}.cls-14{fill:url(#linear-gradient-11);}.cls-15{fill:#e05a00;}.cls-16{fill:url(#linear-gradient-12);}.cls-17{fill:url(#linear-gradient-13);}.cls-18{fill:url(#linear-gradient-14);}.cls-19{fill:url(#linear-gradient-15);}.cls-20{fill:url(#linear-gradient-16);}.cls-21{fill:url(#linear-gradient-17);}.cls-22{fill:url(#linear-gradient-18);}.cls-23{fill:url(#linear-gradient-19);}.cls-24{fill:url(#linear-gradient-20);}.cls-25{fill:url(#linear-gradient-21);}.cls-26{fill:url(#linear-gradient-22);}</style><linearGradient id="linear-gradient" x1="872.07" y1="1150.83" x2="872.07" y2="1759.11" gradientTransform="matrix(0.46, 0.89, -1.02, 0.53, 1712.13, -888.15)" gradientUnits="userSpaceOnUse"><stop offset="0" stop-color="#ff960b"/><stop offset="1" stop-color="#e05a00"/></linearGradient><linearGradient id="linear-gradient-2" x1="924.83" y1="1253.35" x2="808.75" y2="1137.27" gradientTransform="matrix(0.46, 0.89, -1.02, 0.53, 1712.13, -888.15)" gradientUnits="userSpaceOnUse"><stop offset="0" stop-color="#faf1e0"/><stop offset="0.21" stop-color="#fcf5ea"/><stop offset="0.65" stop-color="#fefdfa"/><stop offset="1" stop-color="#fff"/></linearGradient><linearGradient id="linear-gradient-3" x1="556.15" y1="1092.86" x2="556.15" y2="744.31" gradientTransform="matrix(1, 0, 0, 1, 0, 0)" xlink:href="#linear-gradient"/><linearGradient id="linear-gradient-4" x1="233.3" y1="1092.86" x2="233.3" y2="744.31" gradientTransform="matrix(1, 0, 0, 1, 0, 0)" xlink:href="#linear-gradient"/><linearGradient id="linear-gradient-5" x1="202.61" y1="126.57" x2="81.61" y2="5.57" gradientTransform="matrix(1, 0, 0, 1, 0, 0)" xlink:href="#linear-gradient-2"/><linearGradient id="linear-gradient-6" x1="175.83" y1="141.78" x2="175.83" y2="38.23" gradientUnits="userSpaceOnUse"><stop offset="0" stop-color="#ff7676"/><stop offset="1" stop-color="#ffaeae"/></linearGradient><linearGradient id="linear-gradient-7" x1="709.23" y1="11.07" x2="588.23" y2="132.07" gradientTransform="matrix(1, 0, 0, 1, 0, 0)" xlink:href="#linear-gradient"/><linearGradient id="linear-gradient-8" x1="611.8" y1="110.87" x2="657.15" y2="32.31" xlink:href="#linear-gradient-6"/><linearGradient id="linear-gradient-9" x1="394.72" y1="875.34" x2="394.72" y2="30.39" gradientUnits="userSpaceOnUse"><stop offset="0" stop-color="#efd3a0"/><stop offset="0.02" stop-color="#f1d7a9"/><stop offset="0.09" stop-color="#f5e4c4"/><stop offset="0.17" stop-color="#f9eeda"/><stop offset="0.27" stop-color="#fcf6eb"/><stop offset="0.38" stop-color="#fefbf6"/><stop offset="0.55" stop-color="#fffefd"/><stop offset="1" stop-color="#fff"/></linearGradient><linearGradient id="linear-gradient-10" x1="394.72" y1="202.35" x2="394.72" y2="492.41" gradientUnits="userSpaceOnUse"><stop offset="0" stop-color="#e24000"/><stop offset="0.4" stop-color="#e03f00"/><stop offset="0.6" stop-color="#d83d00"/><stop offset="0.76" stop-color="#cb3800"/><stop offset="0.89" stop-color="#b83100"/><stop offset="1" stop-color="#a32a00"/></linearGradient><linearGradient id="linear-gradient-11" x1="286.83" y1="596.22" x2="0" y2="596.22" gradientUnits="userSpaceOnUse"><stop offset="0" stop-color="#ff960b"/><stop offset="0.5" stop-color="#fe940b"/><stop offset="0.68" stop-color="#fb8d09"/><stop offset="0.81" stop-color="#f48207"/><stop offset="0.91" stop-color="#ec7104"/><stop offset="1" stop-color="#e15b00"/><stop offset="1" stop-color="#e05a00"/></linearGradient><linearGradient id="linear-gradient-12" x1="502.62" y1="596.22" x2="789.45" y2="596.22" xlink:href="#linear-gradient-11"/><linearGradient id="linear-gradient-13" x1="1385.85" y1="291.85" x2="1385.85" y2="900.12" xlink:href="#linear-gradient"/><linearGradient id="linear-gradient-14" x1="1438.61" y1="394.36" x2="1322.53" y2="278.28" xlink:href="#linear-gradient-2"/><linearGradient id="linear-gradient-15" x1="1317.01" y1="126.57" x2="1196" y2="5.57" gradientTransform="matrix(1, 0, 0, 1, 0, 0)" xlink:href="#linear-gradient-2"/><linearGradient id="linear-gradient-16" x1="1290.22" y1="141.78" x2="1290.22" y2="38.23" xlink:href="#linear-gradient-6"/><linearGradient id="linear-gradient-17" x1="1823.63" y1="11.07" x2="1702.63" y2="132.07" gradientTransform="matrix(1, 0, 0, 1, 0, 0)" xlink:href="#linear-gradient"/><linearGradient id="linear-gradient-18" x1="1726.19" y1="110.87" x2="1771.54" y2="32.31" xlink:href="#linear-gradient-6"/><linearGradient id="linear-gradient-19" x1="1509.12" y1="948.25" x2="1509.12" y2="30.39" xlink:href="#linear-gradient-9"/><linearGradient id="linear-gradient-20" x1="1509.12" y1="202.35" x2="1509.12" y2="492.41" xlink:href="#linear-gradient-10"/><linearGradient id="linear-gradient-21" x1="1401.22" y1="634.75" x2="1114.39" y2="634.75" xlink:href="#linear-gradient-11"/><linearGradient id="linear-gradient-22" x1="1617.02" y1="634.75" x2="1903.84" y2="634.75" xlink:href="#linear-gradient-11"/></defs><g id="Layer_2" data-name="Layer 2"><g id="Layer_1-2" data-name="Layer 1"><path class="cls-1" d="M347,807.76h0c-17.37-33.42-1.71-76.64,35.69-98.53L822.93,451.56c53.32-31.2,119.11-17.36,143.86,30.28h0C991.53,529.47,965,591.27,908.86,617L448.12,835.19C408.7,853.21,364.34,841.18,347,807.76Z"/><path class="cls-2" d="M914.57,614.16q-2.8,1.46-5.71,2.79l-1.74.79a213.61,213.61,0,0,0-85.83-165.21l1.65-1c53.31-31.2,119.1-17.35,143.85,30.28C990.68,527.83,966.81,587,914.57,614.16Z"/><path class="cls-3" d="M710.7,744.31s-84.47,186-105.67,253.5c14.05,2,28.43,8.65,34.41,26.2,13.36,39.19-60.57,72.15-126.49,68.58a231.29,231.29,0,0,1-83.88-21.17,47.29,47.29,0,0,1-27.47-42.9V756.78Z"/><path class="cls-4" d="M78.75,744.31s84.47,186,105.67,253.5c-14,2-28.43,8.65-34.41,26.2-13.36,39.19,60.57,72.15,126.49,68.58a231.29,231.29,0,0,0,83.88-21.17,47.29,47.29,0,0,0,27.47-42.9V756.78Z"/><path class="cls-5" d="M83.35,27.19c-2.79-18.32,18.33-32.4,38-25.33l57.68,20.7L281,59.15l-87.52,58.31L106,175.77,91.53,80.87Z"/><path class="cls-6" d="M117.67,54.25c-1.64-10.8,10.8-19.09,22.4-14.92l34,12.19,60.08,21.56-51.56,34.35L131,141.78l-8.51-55.91Z"/><path class="cls-7" d="M713,27.19c2.79-18.32-18.33-32.4-38-25.33l-57.68,20.7-102,36.59,87.53,58.31,87.53,58.31,14.45-94.9Z"/><path class="cls-8" d="M678.67,54.25c1.65-10.8-10.8-19.09-22.39-14.92l-34,12.19L562.22,73.08l51.56,34.35,51.56,34.35,8.52-55.91Z"/><path class="cls-9" d="M369.2,30.39h51A346.24,346.24,0,0,1,766.49,376.64V571.49A303.84,303.84,0,0,1,462.65,875.34H326.89A303.93,303.93,0,0,1,23,571.41V376.64A346.24,346.24,0,0,1,369.2,30.39Z"/><path class="cls-10" d="M698.25,170.24c-28.48,18.09-61.62,26.91-99.62,26.91-95,0-172.09-66.84-172.09-149.29a129.64,129.64,0,0,1,1.17-17.49c102.46,3.21,173.77,43.34,229.41,93.17C672.77,137.55,685,152.13,698.25,170.24Z"/><path class="cls-11" d="M660.79,347.38c0,40.05-18.71,76.31-49,102.55s-72.05,42.48-118.23,42.48H295.86c-92.34,0-167.2-64.93-167.2-145,0-40.05,18.71-76.31,49-102.55a167.3,167.3,0,0,1,35.06-23.29l9.38,11.11,11.11,13.15c3.79,4.48,11.76,3.73,14.35-1.36l7.57-14.91,12.78-25.16a193.27,193.27,0,0,1,28-2H493.59a192.26,192.26,0,0,1,26.6,1.83l12.88,25.35,7.57,14.91c2.58,5.09,10.55,5.84,14.34,1.36l11.1-13.15,9.77-11.56C626.56,246,660.79,293.22,660.79,347.38Z"/><path class="cls-12" d="M385.77,186.27a11,11,0,0,0,16.35,0l10.63-11.73,7.1-7.81a7.73,7.73,0,0,0-5.73-12.92L394,152.74l-20.19,1.07A7.73,7.73,0,0,0,368,166.73l7.1,7.81Z"/><path class="cls-13" d="M302,145.25h0a5.73,5.73,0,0,1-5.48-5c-2.17-13.41-12.88-23.59-25.76-23.59s-23.6,10.18-25.77,23.59a5.73,5.73,0,0,1-5.48,5h0c-3.42,0-6.09-3.36-5.51-7.05,3.06-19.18,18.35-33.77,36.76-33.77s33.7,14.59,36.76,33.77C308.09,141.89,305.42,145.25,302,145.25Z"/><path class="cls-13" d="M550,145.25h0a5.73,5.73,0,0,1-5.48-5c-2.17-13.41-12.88-23.59-25.76-23.59s-23.6,10.18-25.77,23.59a5.73,5.73,0,0,1-5.48,5h0c-3.42,0-6.09-3.36-5.51-7.05C485,119,500.29,104.43,518.7,104.43S552.4,119,555.46,138.2C556,141.89,553.37,145.25,550,145.25Z"/><path class="cls-14" d="M286.77,614.78a49.55,49.55,0,0,1-1.4,9.68c-.28,1.16-.59,2.29-.95,3.42-.29.94-.62,1.87-1,2.8-.54,1.42-1.15,2.82-1.82,4.18A51.64,51.64,0,0,1,256,659.48l-.72.29c-2.07.75-4.14,1.49-6.23,2.2-37.62,12.87-55.79,16-97.92,14-52.35-2.52-83-11-125.65-35.2A50.46,50.46,0,0,1,.06,594.36L3,533.75c.77-16,19.81-23.6,31.52-12.74,36.91,34.21,67.4,49.8,121.6,52.41,22.15,1.07,21.2,1.82,41.67-3.27a9.64,9.64,0,0,0,7.16-9.06.21.21,0,0,1,0-.08,23.11,23.11,0,0,1,43.24-10.18,23.35,23.35,0,0,1,2.57,7.14,9.79,9.79,0,0,0,5.64,7.27,51.76,51.76,0,0,1,20.86,17.13c.34.48.67,1,1,1.45a49,49,0,0,1,3.2,5.53c.12.21.23.43.33.65A51.42,51.42,0,0,1,286.77,614.78Z"/><path class="cls-15" d="M278.24,583.82c-.32-.49-.65-1-1-1.45-21.08,2.25-32.45,8-37,10.33-.52.27-1.11.56-1.42.69a3.68,3.68,0,0,0,.48,7.29c1.31.06,2.3-.43,4.26-1.42,4.46-2.27,15.94-8.1,37.9-9.91A49,49,0,0,0,278.24,583.82Z"/><path class="cls-15" d="M253.74,627.23c-.6.06-1.23.17-1.57.2a3.66,3.66,0,0,0-1.9,7c1.21.49,2.3.33,4.48,0,3.94-.56,12.75-1.81,26.88.37.67-1.36,1.28-2.76,1.82-4.18.35-.93.68-1.86,1-2.8C268.26,625.18,258.14,626.6,253.74,627.23Z"/><path class="cls-16" d="M502.68,614.78a49.55,49.55,0,0,0,1.4,9.68c.28,1.16.59,2.29.95,3.42.29.94.62,1.87,1,2.8.54,1.42,1.15,2.82,1.82,4.18a51.64,51.64,0,0,0,25.59,24.62l.72.29c2.07.75,4.14,1.49,6.23,2.2,37.62,12.87,55.79,16,97.92,14,52.35-2.52,83-11,125.65-35.2a50.46,50.46,0,0,0,25.46-46.38l-2.93-60.61c-.77-16-19.81-23.6-31.52-12.74-36.91,34.21-67.4,49.8-121.6,52.41-22.15,1.07-21.2,1.82-41.67-3.27a9.64,9.64,0,0,1-7.16-9.06.21.21,0,0,0,0-.08,23.11,23.11,0,0,0-43.24-10.18A23.35,23.35,0,0,0,538.7,558a9.79,9.79,0,0,1-5.64,7.27,51.76,51.76,0,0,0-20.86,17.13c-.34.48-.67,1-1,1.45a49,49,0,0,0-3.2,5.53c-.12.21-.23.43-.33.65A51.42,51.42,0,0,0,502.68,614.78Z"/><path class="cls-15" d="M508,589.35c22,1.81,33.44,7.64,37.9,9.91,2,1,3,1.48,4.26,1.42a3.68,3.68,0,0,0,.48-7.29c-.31-.13-.9-.42-1.42-.69-4.58-2.32-16-8.08-37-10.33-.34.48-.67,1-1,1.45A49,49,0,0,0,508,589.35Z"/><path class="cls-15" d="M505,627.88c.29.94.62,1.87,1,2.8.54,1.42,1.15,2.82,1.82,4.18,14.13-2.18,22.94-.93,26.88-.37,2.18.3,3.27.46,4.48,0a3.66,3.66,0,0,0-1.9-7c-.34,0-1-.14-1.57-.2C531.31,626.6,521.19,625.18,505,627.88Z"/><path class="cls-10" d="M388.36,875.34H326.89c-124.76,0-232-75.17-278.78-182.7a305.1,305.1,0,0,1,59.25-5.78C234.29,686.86,343,764.75,388.36,875.34Z"/><path class="cls-17" d="M1461.37,807.76h0c-17.36-33.42-1.71-76.64,35.7-98.53l440.26-257.67c53.31-31.2,119.1-17.36,143.85,30.28h0c24.75,47.63-1.74,109.43-57.93,135.11L1562.51,835.19C1523.09,853.21,1478.74,841.18,1461.37,807.76Z"/><path class="cls-18" d="M2029,614.16c-1.88,1-3.77,1.9-5.71,2.79l-1.75.79a213.61,213.61,0,0,0-85.83-165.21l1.65-1c53.31-31.2,119.1-17.35,143.85,30.28C2105.08,527.83,2081.21,587,2029,614.16Z"/><path class="cls-19" d="M1197.75,27.19c-2.79-18.32,18.33-32.4,38-25.33l57.68,20.7,102,36.59-87.53,58.31-87.53,58.31-14.45-94.9Z"/><path class="cls-20" d="M1232.07,54.25c-1.65-10.8,10.8-19.09,22.4-14.92l34,12.19,60.08,21.56L1297,107.43l-51.56,34.35-8.52-55.91Z"/><path class="cls-21" d="M1827.39,27.19c2.79-18.32-18.33-32.4-38-25.33l-57.68,20.7-102,36.59,87.52,58.31,87.53,58.31,14.45-94.9Z"/><path class="cls-22" d="M1793.07,54.25c1.64-10.8-10.8-19.09-22.4-14.92l-34,12.19-60.08,21.56,51.56,34.35,51.57,34.35,8.51-55.91Z"/><path class="cls-23" d="M1483.6,30.39h51a346.24,346.24,0,0,1,346.24,346.24V948.25a0,0,0,0,1,0,0H1137.35a0,0,0,0,1,0,0V376.64A346.24,346.24,0,0,1,1483.6,30.39Z"/><path class="cls-10" d="M1812.64,170.24c-28.47,18.09-61.62,26.91-99.62,26.91-95,0-172.08-66.84-172.08-149.29a131.29,131.29,0,0,1,1.16-17.49c102.47,3.21,173.78,43.34,229.42,93.17C1787.16,137.55,1799.34,152.13,1812.64,170.24Z"/><path class="cls-24" d="M1775.19,347.38c0,40.05-18.71,76.31-49,102.55s-72,42.48-118.22,42.48H1410.25c-92.33,0-167.2-64.93-167.2-145,0-40.05,18.71-76.31,49-102.55a167.49,167.49,0,0,1,35-23.29l9.39,11.11,11.1,13.15c3.79,4.48,11.76,3.73,14.35-1.36l7.58-14.91,12.77-25.16a193.48,193.48,0,0,1,28-2H1608a192,192,0,0,1,26.59,1.83l12.88,25.35,7.58,14.91c2.58,5.09,10.54,5.84,14.34,1.36l11.1-13.15,9.76-11.56C1741,246,1775.19,293.22,1775.19,347.38Z"/><path class="cls-12" d="M1500.17,186.27a11,11,0,0,0,16.34,0l10.64-11.73,7.09-7.81a7.73,7.73,0,0,0-5.72-12.92l-20.17-1.07-20.19,1.07a7.73,7.73,0,0,0-5.72,12.92l7.09,7.81Z"/><path class="cls-13" d="M1416.39,145.25h0a5.72,5.72,0,0,1-5.47-5c-2.17-13.41-12.89-23.59-25.76-23.59s-23.6,10.18-25.78,23.59a5.72,5.72,0,0,1-5.47,5h0c-3.43,0-6.1-3.36-5.51-7.05,3-19.18,18.35-33.77,36.76-33.77s33.7,14.59,36.75,33.77C1422.49,141.89,1419.82,145.25,1416.39,145.25Z"/><path class="cls-13" d="M1664.34,145.25h0a5.72,5.72,0,0,1-5.47-5c-2.18-13.41-12.89-23.59-25.77-23.59s-23.6,10.18-25.77,23.59a5.73,5.73,0,0,1-5.47,5h0c-3.43,0-6.1-3.36-5.51-7.05,3.05-19.18,18.35-33.77,36.75-33.77s33.71,14.59,36.76,33.77C1670.44,141.89,1667.77,145.25,1664.34,145.25Z"/><path class="cls-25" d="M1401.16,653.3a48.9,48.9,0,0,1-1.4,9.69c-.27,1.15-.59,2.28-.94,3.41-.29.94-.62,1.87-1,2.8-.54,1.42-1.15,2.82-1.82,4.18A51.56,51.56,0,0,1,1370.43,698c-.24.11-.48.2-.72.29q-3.11,1.14-6.22,2.2c-37.63,12.87-55.8,16-97.92,14-52.36-2.52-83-11-125.66-35.2a50.47,50.47,0,0,1-25.46-46.38l2.94-60.6c.76-16,19.8-23.6,31.51-12.75,36.91,34.22,67.41,49.8,121.61,52.42,22.14,1.06,21.2,1.81,41.66-3.28a9.62,9.62,0,0,0,7.16-9.06v-.08a23.11,23.11,0,0,1,45.81-3,9.84,9.84,0,0,0,5.64,7.28,51.76,51.76,0,0,1,20.87,17.12l1,1.46a46.53,46.53,0,0,1,3.19,5.52c.12.21.23.43.33.65A51.33,51.33,0,0,1,1401.16,653.3Z"/><path class="cls-15" d="M1392.64,622.35l-1-1.46c-21.09,2.25-32.45,8-37,10.33-.53.28-1.12.56-1.42.7a3.68,3.68,0,0,0,.47,7.29c1.31.06,2.3-.44,4.26-1.43,4.46-2.27,15.94-8.1,37.9-9.91A46.53,46.53,0,0,0,1392.64,622.35Z"/><path class="cls-15" d="M1368.13,665.75c-.59.07-1.23.17-1.57.2a3.67,3.67,0,0,0-1.9,7c1.22.49,2.31.33,4.49,0,3.94-.56,12.75-1.81,26.87.37.67-1.36,1.28-2.76,1.82-4.18.36-.93.69-1.86,1-2.8C1382.66,663.7,1372.54,665.12,1368.13,665.75Z"/><path class="cls-26" d="M1617.08,653.3a48.9,48.9,0,0,0,1.4,9.69c.27,1.15.59,2.28.94,3.41.29.94.62,1.87,1,2.8.54,1.42,1.15,2.82,1.82,4.18A51.56,51.56,0,0,0,1647.81,698c.24.11.48.2.72.29q3.1,1.14,6.22,2.2c37.63,12.87,55.8,16,97.92,14,52.36-2.52,83-11,125.66-35.2a50.47,50.47,0,0,0,25.46-46.38l-2.94-60.6c-.76-16-19.8-23.6-31.51-12.75-36.91,34.22-67.41,49.8-121.61,52.42-22.15,1.06-21.2,1.81-41.66-3.28a9.62,9.62,0,0,1-7.16-9.06v-.08a23.11,23.11,0,0,0-45.81-3,9.84,9.84,0,0,1-5.64,7.28,51.76,51.76,0,0,0-20.87,17.12c-.34.48-.66,1-1,1.46a46.53,46.53,0,0,0-3.19,5.52c-.12.21-.23.43-.33.65A51.33,51.33,0,0,0,1617.08,653.3Z"/><path class="cls-15" d="M1622.41,627.87c22,1.81,33.44,7.64,37.9,9.91,2,1,3,1.49,4.26,1.43a3.68,3.68,0,0,0,.47-7.29c-.3-.14-.89-.42-1.42-.7-4.58-2.32-15.94-8.08-37-10.33-.34.48-.66,1-1,1.46A46.53,46.53,0,0,0,1622.41,627.87Z"/><path class="cls-15" d="M1619.42,666.4c.29.94.62,1.87,1,2.8.54,1.42,1.15,2.82,1.82,4.18,14.12-2.18,22.93-.93,26.87-.37,2.18.3,3.27.46,4.49,0a3.67,3.67,0,0,0-1.91-7c-.33,0-1-.13-1.56-.2C1645.7,665.12,1635.58,663.7,1619.42,666.4Z"/></g></g></svg>